<svg viewBox="0 0 24 24" fill="currentColor" xmlns="http://www.w3.org/2000/svg">
  <!-- Estrutura superior escalonada (capitel) -->
  <rect x="6.5" y="2" width="11" height="0.8"/>
  <rect x="7" y="3.2" width="10" height="0.7"/>
  <rect x="7.5" y="4.2" width="9" height="0.7"/>
  <rect x="8" y="5.2" width="8" height="0.7"/>
  
  <!-- Colunas centrais (pilares) -->
  <rect x="10" y="6.2" width="1.3" height="10.5"/>
  <rect x="12.7" y="6.2" width="1.3" height="10.5"/>
  
  <!-- Barra horizontal da balança -->
  <rect x="1.5" y="8.4" width="21" height="0.8"/>
  
  <!-- Prato esquerdo -->
  <g>
    <!-- Cordas de suspensão triangulares -->
    <line x1="4.5" y1="9" x2="3.5" y2="12.5" stroke="currentColor" stroke-width="0.25"/>
    <line x1="6.5" y1="9" x2="7.5" y2="12.5" stroke="currentColor" stroke-width="0.25"/>
    <line x1="5.5" y1="9" x2="5.5" y2="12.5" stroke="currentColor" stroke-width="0.25"/>
    
    <!-- Formato triangular superior -->
    <path d="M 4.5 9 L 6.5 9 L 5.5 11.5 Z"/>
    
    <!-- Prato semicircular -->
    <path d="M 3.5 12.5 Q 3.5 14 5.5 14 Q 7.5 14 7.5 12.5 L 3.5 12.5"/>
  </g>
  
  <!-- Prato direito -->
  <g>
    <!-- Cordas de suspensão triangulares -->
    <line x1="17.5" y1="9" x2="16.5" y2="12.5" stroke="currentColor" stroke-width="0.25"/>
    <line x1="19.5" y1="9" x2="20.5" y2="12.5" stroke="currentColor" stroke-width="0.25"/>
    <line x1="18.5" y1="9" x2="18.5" y2="12.5" stroke="currentColor" stroke-width="0.25"/>
    
    <!-- Formato triangular superior -->
    <path d="M 17.5 9 L 19.5 9 L 18.5 11.5 Z"/>
    
    <!-- Prato semicircular -->
    <path d="M 16.5 12.5 Q 16.5 14 18.5 14 Q 20.5 14 20.5 12.5 L 16.5 12.5"/>
  </g>
  
  <!-- Ponto central de apoio -->
  <circle cx="12" cy="8.8" r="0.4"/>
  
  <!-- Extensão inferior (haste da lança) -->
  <rect x="11.2" y="16.7" width="1.6" height="3.5"/>
  
  <!-- Ponta da lança (losango pontudo) -->
  <path d="M 12 20.2 L 11 21.8 L 12 22.8 L 13 21.8 Z"/>
  
  <!-- Detalhe central na haste -->
  <circle cx="12" cy="18.5" r="0.25"/>
</svg>
