<svg viewBox="0 0 24 24" fill="currentColor" xmlns="http://www.w3.org/2000/svg">
  <!-- Estrutura superior (capitel) -->
  <rect x="8" y="2" width="8" height="0.8" rx="0.2"/>
  <rect x="8.5" y="3.2" width="7" height="0.6" rx="0.2"/>
  <rect x="9" y="4.2" width="6" height="0.6" rx="0.2"/>
  <rect x="9.5" y="5.2" width="5" height="0.6" rx="0.2"/>
  
  <!-- Colunas verticais -->
  <rect x="10.5" y="6" width="1" height="12"/>
  <rect x="12.5" y="6" width="1" height="12"/>
  
  <!-- Braço horizontal da balança -->
  <rect x="3" y="8.8" width="18" height="0.4"/>
  
  <!-- Prato esquerdo -->
  <g>
    <!-- Cordas de suspensão -->
    <line x1="5.5" y1="9" x2="4.5" y2="11.5" stroke="currentColor" stroke-width="0.2"/>
    <line x1="7.5" y1="9" x2="8.5" y2="11.5" stroke="currentColor" stroke-width="0.2"/>
    <line x1="6.5" y1="9" x2="6.5" y2="11.5" stroke="currentColor" stroke-width="0.2"/>
    
    <!-- Prato -->
    <path d="M 4.5 11.5 Q 4.5 12.5 6.5 12.5 Q 8.5 12.5 8.5 11.5 Q 8.5 11.2 6.5 11.2 Q 4.5 11.2 4.5 11.5 Z"/>
  </g>
  
  <!-- Prato direito -->
  <g>
    <!-- Cordas de suspensão -->
    <line x1="16.5" y1="9" x2="15.5" y2="11.5" stroke="currentColor" stroke-width="0.2"/>
    <line x1="18.5" y1="9" x2="19.5" y2="11.5" stroke="currentColor" stroke-width="0.2"/>
    <line x1="17.5" y1="9" x2="17.5" y2="11.5" stroke="currentColor" stroke-width="0.2"/>
    
    <!-- Prato -->
    <path d="M 15.5 11.5 Q 15.5 12.5 17.5 12.5 Q 19.5 12.5 19.5 11.5 Q 19.5 11.2 17.5 11.2 Q 15.5 11.2 15.5 11.5 Z"/>
  </g>
  
  <!-- Ponto central de apoio -->
  <circle cx="12" cy="8.8" r="0.3"/>
  
  <!-- Extensão inferior (espada/lança) -->
  <rect x="11.6" y="18" width="0.8" height="2.5"/>
  <path d="M 11.8 20.5 L 12 22 L 12.2 20.5 Z"/>
  
  <!-- Detalhe no meio da extensão -->
  <circle cx="12" cy="19.2" r="0.15"/>
</svg>
