<svg viewBox="0 0 24 24" fill="currentColor" xmlns="http://www.w3.org/2000/svg">
  <!-- Estrutura superior (base do topo) -->
  <rect x="9" y="2" width="6" height="1" rx="0.5"/>
  <rect x="8.5" y="3.5" width="7" height="0.8" rx="0.4"/>
  <rect x="8" y="5" width="8" height="0.8" rx="0.4"/>
  
  <!-- Pilares centrais -->
  <rect x="10.2" y="6" width="1.2" height="14" rx="0.6"/>
  <rect x="12.6" y="6" width="1.2" height="14" rx="0.6"/>
  
  <!-- Braço horizontal da balança -->
  <rect x="4" y="8.6" width="16" height="0.8" rx="0.4"/>
  
  <!-- Prato esquerdo da balança -->
  <g>
    <!-- Cordas -->
    <line x1="6" y1="9" x2="5" y2="12" stroke="currentColor" stroke-width="0.3"/>
    <line x1="9" y1="9" x2="10" y2="12" stroke="currentColor" stroke-width="0.3"/>
    <line x1="7.5" y1="9" x2="7.5" y2="12" stroke="currentColor" stroke-width="0.3"/>
    
    <!-- Prato -->
    <ellipse cx="7.5" cy="12" rx="2.8" ry="0.6"/>
    <path d="M 4.7 12 Q 4.7 13.5 7.5 13.5 Q 10.3 13.5 10.3 12"/>
  </g>
  
  <!-- Prato direito da balança -->
  <g>
    <!-- Cordas -->
    <line x1="18" y1="9" x2="19" y2="12" stroke="currentColor" stroke-width="0.3"/>
    <line x1="15" y1="9" x2="14" y2="12" stroke="currentColor" stroke-width="0.3"/>
    <line x1="16.5" y1="9" x2="16.5" y2="12" stroke="currentColor" stroke-width="0.3"/>
    
    <!-- Prato -->
    <ellipse cx="16.5" cy="12" rx="2.8" ry="0.6"/>
    <path d="M 13.7 12 Q 13.7 13.5 16.5 13.5 Q 19.3 13.5 19.3 12"/>
  </g>
  
  <!-- Ponto central de apoio -->
  <circle cx="12" cy="9" r="0.4"/>
  
  <!-- Extensão inferior decorativa (espada) -->
  <path d="M 11.4 20 L 11.4 21.5 Q 11.4 22.2 12 22.2 Q 12.6 22.2 12.6 21.5 L 12.6 20"/>
  <circle cx="12" cy="20.8" r="0.2"/>
  
  <!-- Base inferior -->
  <rect x="10" y="20" width="4" height="0.8" rx="0.4"/>
</svg>
