<svg viewBox="0 0 24 24" fill="currentColor" xmlns="http://www.w3.org/2000/svg">
  <!-- Estrutura superior simplificada -->
  <rect x="8" y="2" width="8" height="1" rx="0.5"/>
  <rect x="8.5" y="3.5" width="7" height="0.8" rx="0.4"/>
  <rect x="9" y="5" width="6" height="0.8" rx="0.4"/>
  
  <!-- Coluna central única -->
  <rect x="11.4" y="6" width="1.2" height="12" rx="0.6"/>
  
  <!-- Barra horizontal da balança -->
  <rect x="3" y="9" width="18" height="0.6" rx="0.3"/>
  
  <!-- Prato esquerdo simplificado -->
  <g>
    <!-- Cordas minimalistas -->
    <line x1="6" y1="9.3" x2="6" y2="12" stroke="currentColor" stroke-width="0.4"/>
    <line x1="5" y1="9.3" x2="5.5" y2="12" stroke="currentColor" stroke-width="0.3"/>
    <line x1="7" y1="9.3" x2="6.5" y2="12" stroke="currentColor" stroke-width="0.3"/>
    
    <!-- Prato circular simples -->
    <circle cx="6" cy="12.5" r="2"/>
  </g>
  
  <!-- Prato direito simplificado -->
  <g>
    <!-- Cordas minimalistas -->
    <line x1="18" y1="9.3" x2="18" y2="12" stroke="currentColor" stroke-width="0.4"/>
    <line x1="17" y1="9.3" x2="17.5" y2="12" stroke="currentColor" stroke-width="0.3"/>
    <line x1="19" y1="9.3" x2="18.5" y2="12" stroke="currentColor" stroke-width="0.3"/>
    
    <!-- Prato circular simples -->
    <circle cx="18" cy="12.5" r="2"/>
  </g>
  
  <!-- Ponto central de apoio -->
  <circle cx="12" cy="9.3" r="0.6"/>
  
  <!-- Extensão inferior minimalista -->
  <rect x="11.7" y="18" width="0.6" height="3" rx="0.3"/>
  
  <!-- Ponta da lança simplificada -->
  <path d="M 12 21 L 11.5 22 L 12.5 22 Z"/>
</svg>
